<svg width="139" height="52" viewBox="0 0 139 52" fill="none" xmlns="http://www.w3.org/2000/svg">
<g filter="url(#filter0_d_7_77)">
<path d="M0.5 24C0.5 10.7452 11.2452 0 24.5 0H114.5C127.755 0 138.5 10.7452 138.5 24V24C138.5 37.2548 127.755 48 114.5 48H24.5C11.2452 48 0.5 37.2548 0.5 24V24Z" fill="#B65A0F"/>
</g>
<path d="M89.0758 19.897V17.9091H99.5204V19.897H95.4743V31H93.122V19.897H89.0758Z" fill="white"/>
<path d="M77.2241 31V17.9091H82.1332C83.1389 17.9091 83.9826 18.0838 84.6644 18.4333C85.3505 18.7827 85.8683 19.2728 86.2177 19.9034C86.5714 20.5299 86.7482 21.2607 86.7482 22.0959C86.7482 22.9354 86.5693 23.6641 86.2113 24.282C85.8576 24.8956 85.3356 25.3708 84.6453 25.7074C83.9549 26.0398 83.1069 26.206 82.1012 26.206H78.6048V24.2372H81.7816C82.3697 24.2372 82.8512 24.1563 83.2262 23.9943C83.6012 23.8282 83.8782 23.5874 84.0572 23.272C84.2404 22.9524 84.332 22.5604 84.332 22.0959C84.332 21.6314 84.2404 21.2351 84.0572 20.907C83.8739 20.5746 83.5948 20.3232 83.2198 20.1527C82.8448 19.978 82.3612 19.8907 81.7688 19.8907H79.5955V31H77.2241ZM83.9869 25.0682L87.2276 31H84.5813L81.3981 25.0682H83.9869Z" fill="white"/>
<path d="M65.1598 31H62.6285L67.2372 17.9091H70.1648L74.7798 31H72.2486L68.7521 20.5938H68.6498L65.1598 31ZM65.2429 25.8672H72.1463V27.772H65.2429V25.8672Z" fill="white"/>
<path d="M51.8826 19.897V17.9091H62.3272V19.897H58.2811V31H55.9288V19.897H51.8826Z" fill="white"/>
<path d="M47.1628 21.5078C47.1031 20.9496 46.8517 20.5149 46.4085 20.2038C45.9696 19.8927 45.3986 19.7372 44.6955 19.7372C44.2011 19.7372 43.7771 19.8118 43.4235 19.9609C43.0698 20.1101 42.7992 20.3125 42.6117 20.5682C42.4242 20.8239 42.3283 21.1158 42.324 21.4439C42.324 21.7166 42.3858 21.9531 42.5094 22.1534C42.6372 22.3537 42.8098 22.5241 43.0271 22.6648C43.2445 22.8011 43.4852 22.9162 43.7494 23.0099C44.0136 23.1037 44.28 23.1825 44.5485 23.2464L45.7757 23.5533C46.27 23.6683 46.7452 23.8239 47.2011 24.0199C47.6614 24.2159 48.0726 24.4631 48.4348 24.7614C48.8013 25.0596 49.0911 25.4197 49.3041 25.8416C49.5172 26.2635 49.6237 26.7578 49.6237 27.3246C49.6237 28.0916 49.4277 28.767 49.0357 29.3508C48.6436 29.9304 48.0769 30.3842 47.3354 30.7123C46.5982 31.0362 45.7054 31.1981 44.6571 31.1981C43.6386 31.1981 42.7544 31.0405 42.0044 30.7251C41.2587 30.4098 40.6749 29.9496 40.253 29.3444C39.8354 28.7393 39.6095 28.0021 39.5754 27.1328H41.9085C41.9426 27.5888 42.0833 27.968 42.3304 28.2706C42.5776 28.5731 42.8993 28.799 43.2956 28.9481C43.6962 29.0973 44.1436 29.1719 44.6379 29.1719C45.1536 29.1719 45.6053 29.0952 45.9931 28.9418C46.3851 28.7841 46.6919 28.5668 46.9135 28.2898C47.1351 28.0085 47.248 27.6804 47.2523 27.3054C47.248 26.9645 47.1479 26.6832 46.9519 26.4616C46.7558 26.2358 46.481 26.0483 46.1273 25.8991C45.7779 25.7457 45.3688 25.6094 44.9 25.49L43.4107 25.1065C42.3325 24.8295 41.4803 24.4098 40.8538 23.8473C40.2317 23.2805 39.9206 22.5284 39.9206 21.5909C39.9206 20.8196 40.1294 20.1442 40.547 19.5646C40.9689 18.9851 41.5421 18.5355 42.2665 18.2159C42.9909 17.892 43.8112 17.7301 44.7274 17.7301C45.6564 17.7301 46.4703 17.892 47.1692 18.2159C47.8723 18.5355 48.4242 18.9808 48.8247 19.5518C49.2253 20.1186 49.432 20.7706 49.4448 21.5078H47.1628Z" fill="white"/>
<defs>
<filter id="filter0_d_7_77" x="0.5" y="0" width="138" height="52" filterUnits="userSpaceOnUse" color-interpolation-filters="sRGB">
<feFlood flood-opacity="0" result="BackgroundImageFix"/>
<feColorMatrix in="SourceAlpha" type="matrix" values="0 0 0 0 0 0 0 0 0 0 0 0 0 0 0 0 0 0 127 0" result="hardAlpha"/>
<feOffset dy="4"/>
<feComposite in2="hardAlpha" operator="out"/>
<feColorMatrix type="matrix" values="0 0 0 0 0.552077 0 0 0 0 0.272304 0 0 0 0 0.0355727 0 0 0 1 0"/>
<feBlend mode="normal" in2="BackgroundImageFix" result="effect1_dropShadow_7_77"/>
<feBlend mode="normal" in="SourceGraphic" in2="effect1_dropShadow_7_77" result="shape"/>
</filter>
</defs>
</svg>
