<svg width="242" height="79" viewBox="0 0 242 79" fill="none" xmlns="http://www.w3.org/2000/svg">
<path d="M231.12 68.29C231.02 67.49 231.08 66.79 231.3 66.19C231.54 65.59 231.87 65.05 232.29 64.57C232.73 64.09 233.21 63.65 233.73 63.25C234.27 62.85 234.77 62.46 235.23 62.08C235.71 61.7 236.1 61.31 236.4 60.91C236.7 60.51 236.85 60.07 236.85 59.59C236.85 58.99 236.7 58.48 236.4 58.06C236.1 57.64 235.66 57.32 235.08 57.1C234.52 56.88 233.84 56.77 233.04 56.77C232.12 56.77 231.28 56.97 230.52 57.37C229.76 57.77 229.01 58.36 228.27 59.14L225.81 56.86C226.77 55.76 227.9 54.88 229.2 54.22C230.52 53.54 231.97 53.2 233.55 53.2C235.01 53.2 236.3 53.42 237.42 53.86C238.56 54.3 239.45 54.97 240.09 55.87C240.75 56.75 241.08 57.86 241.08 59.2C241.08 59.94 240.92 60.59 240.6 61.15C240.3 61.69 239.9 62.18 239.4 62.62C238.92 63.04 238.41 63.45 237.87 63.85C237.33 64.23 236.83 64.63 236.37 65.05C235.91 65.47 235.55 65.94 235.29 66.46C235.03 66.98 234.93 67.59 234.99 68.29H231.12ZM233.07 76.27C232.31 76.27 231.68 76.02 231.18 75.52C230.68 75.02 230.43 74.39 230.43 73.63C230.43 72.85 230.68 72.21 231.18 71.71C231.68 71.21 232.31 70.96 233.07 70.96C233.83 70.96 234.46 71.21 234.96 71.71C235.46 72.21 235.71 72.85 235.71 73.63C235.71 74.39 235.46 75.02 234.96 75.52C234.46 76.02 233.83 76.27 233.07 76.27Z" fill="#B65A0F"/>
<path d="M195.84 50.35L199.53 51.46C198.87 52.98 198.07 54.47 197.13 55.93C196.21 57.39 195.21 58.75 194.13 60.01C193.05 61.25 191.97 62.32 190.89 63.22C190.67 62.98 190.38 62.69 190.02 62.35C189.68 62.01 189.32 61.67 188.94 61.33C188.56 60.97 188.23 60.7 187.95 60.52C189.03 59.72 190.07 58.79 191.07 57.73C192.07 56.67 192.97 55.51 193.77 54.25C194.59 52.97 195.28 51.67 195.84 50.35ZM195.75 54.43H211.62V57.82H194.04L195.75 54.43ZM210.27 54.43H213.93C213.93 54.43 213.93 54.53 213.93 54.73C213.93 54.91 213.93 55.12 213.93 55.36C213.93 55.58 213.92 55.77 213.9 55.93C213.82 58.29 213.74 60.31 213.66 61.99C213.6 63.65 213.51 65.03 213.39 66.13C213.29 67.23 213.17 68.1 213.03 68.74C212.89 69.36 212.71 69.81 212.49 70.09C212.19 70.55 211.86 70.88 211.5 71.08C211.14 71.26 210.74 71.39 210.3 71.47C209.9 71.53 209.39 71.57 208.77 71.59C208.17 71.61 207.52 71.61 206.82 71.59C206.8 71.07 206.7 70.49 206.52 69.85C206.36 69.21 206.14 68.66 205.86 68.2C206.38 68.24 206.85 68.27 207.27 68.29C207.71 68.31 208.06 68.31 208.32 68.29C208.54 68.31 208.72 68.29 208.86 68.23C209 68.15 209.14 68.02 209.28 67.84C209.42 67.66 209.54 67.31 209.64 66.79C209.74 66.25 209.83 65.5 209.91 64.54C209.99 63.56 210.06 62.3 210.12 60.76C210.18 59.2 210.23 57.32 210.27 55.12V54.43ZM192.87 59.98H196.41V72.73C196.41 73.29 196.49 73.72 196.65 74.02C196.83 74.3 197.18 74.49 197.7 74.59C198.22 74.67 199 74.71 200.04 74.71C200.28 74.71 200.64 74.71 201.12 74.71C201.6 74.71 202.15 74.71 202.77 74.71C203.39 74.71 204.04 74.71 204.72 74.71C205.4 74.71 206.06 74.71 206.7 74.71C207.34 74.71 207.91 74.71 208.41 74.71C208.93 74.71 209.33 74.71 209.61 74.71C210.45 74.71 211.08 74.63 211.5 74.47C211.94 74.29 212.25 73.96 212.43 73.48C212.61 73 212.76 72.29 212.88 71.35C213.32 71.63 213.88 71.89 214.56 72.13C215.24 72.37 215.83 72.53 216.33 72.61C216.15 74.01 215.84 75.11 215.4 75.91C214.98 76.71 214.34 77.27 213.48 77.59C212.62 77.91 211.42 78.07 209.88 78.07C209.66 78.07 209.29 78.07 208.77 78.07C208.25 78.07 207.65 78.07 206.97 78.07C206.31 78.07 205.62 78.07 204.9 78.07C204.18 78.07 203.48 78.07 202.8 78.07C202.14 78.07 201.56 78.07 201.06 78.07C200.58 78.07 200.23 78.07 200.01 78.07C198.17 78.07 196.73 77.92 195.69 77.62C194.65 77.32 193.92 76.78 193.5 76C193.08 75.24 192.87 74.16 192.87 72.76V59.98ZM193.89 59.98H205.65V69.67H193.89V66.49H202.11V63.16H193.89V59.98Z" fill="#B65A0F"/>
<path d="M170.25 51.82H184.59V54.55H170.25V51.82ZM175.56 61.42H179.28V63.67H175.56V61.42ZM175.56 65.98H179.28V68.23H175.56V65.98ZM172.62 70.54H182.79V73.09H172.62V70.54ZM174.75 58.54H176.73V71.62H174.75V58.54ZM178.14 58.54H180.12V71.65H178.14V58.54ZM175.92 53.02L179.49 53.17C179.29 54.11 179.06 55.04 178.8 55.96C178.56 56.88 178.33 57.67 178.11 58.33L175.44 58C175.52 57.5 175.59 56.96 175.65 56.38C175.73 55.8 175.79 55.22 175.83 54.64C175.87 54.04 175.9 53.5 175.92 53.02ZM170.79 56.68H184.26V73.99H181.53V59.2H173.43V74.02H170.79V56.68ZM157.38 52.81H169.86V55.39H157.38V52.81ZM159.66 65.98C160.32 68 161.14 69.62 162.12 70.84C163.1 72.06 164.23 72.99 165.51 73.63C166.81 74.25 168.23 74.67 169.77 74.89C171.33 75.11 173.02 75.22 174.84 75.22C175.18 75.22 175.68 75.22 176.34 75.22C177.02 75.22 177.78 75.22 178.62 75.22C179.48 75.22 180.34 75.22 181.2 75.22C182.08 75.2 182.88 75.19 183.6 75.19C184.34 75.19 184.91 75.18 185.31 75.16C185.13 75.4 184.95 75.71 184.77 76.09C184.61 76.47 184.46 76.86 184.32 77.26C184.2 77.66 184.1 78.01 184.02 78.31H182.34H174.75C172.61 78.31 170.65 78.16 168.87 77.86C167.09 77.58 165.47 77.04 164.01 76.24C162.57 75.44 161.3 74.29 160.2 72.79C159.1 71.27 158.18 69.29 157.44 66.85L159.66 65.98ZM161.94 64.03L164.64 64.75C163.98 66.43 163.1 68.03 162 69.55C160.92 71.05 159.72 72.3 158.4 73.3C158.32 73.08 158.18 72.81 157.98 72.49C157.8 72.15 157.61 71.82 157.41 71.5C157.21 71.18 157.02 70.92 156.84 70.72C157.92 69.94 158.91 68.97 159.81 67.81C160.73 66.63 161.44 65.37 161.94 64.03ZM159.03 55.72L161.1 56.32C160.78 57.42 160.34 58.52 159.78 59.62C159.24 60.72 158.66 61.66 158.04 62.44C157.92 62.2 157.72 61.87 157.44 61.45C157.18 61.01 156.94 60.68 156.72 60.46C157.22 59.84 157.67 59.11 158.07 58.27C158.47 57.43 158.79 56.58 159.03 55.72ZM162.18 66.13H167.25V68.68H160.89L162.18 66.13ZM166.38 66.13H167.01L167.52 66.04L169.35 66.91C168.75 68.95 167.91 70.75 166.83 72.31C165.77 73.85 164.53 75.15 163.11 76.21C161.69 77.29 160.15 78.15 158.49 78.79C158.39 78.55 158.23 78.27 158.01 77.95C157.81 77.63 157.59 77.31 157.35 76.99C157.13 76.69 156.92 76.46 156.72 76.3C158.26 75.76 159.68 75.05 160.98 74.17C162.28 73.29 163.39 72.22 164.31 70.96C165.25 69.7 165.94 68.26 166.38 66.64V66.13ZM162.33 50.53H165.33V61.96H162.33V50.53ZM158.82 58.84L160.14 57.43C160.54 57.77 160.94 58.16 161.34 58.6C161.74 59.02 162.05 59.38 162.27 59.68L160.89 61.27C160.67 60.95 160.36 60.56 159.96 60.1C159.56 59.64 159.18 59.22 158.82 58.84ZM167.07 55.66L169.08 56.17C168.86 57.01 168.56 57.87 168.18 58.75C167.8 59.63 167.41 60.38 167.01 61C166.83 60.84 166.56 60.65 166.2 60.43C165.84 60.19 165.54 60.01 165.3 59.89C165.68 59.29 166.02 58.62 166.32 57.88C166.62 57.14 166.87 56.4 167.07 55.66ZM166.98 58.93L168.36 57.52C168.76 57.86 169.17 58.24 169.59 58.66C170.01 59.08 170.33 59.43 170.55 59.71L169.08 61.33C168.86 60.99 168.55 60.6 168.15 60.16C167.75 59.7 167.36 59.29 166.98 58.93ZM162.66 60.25L164.94 61.18C164.46 61.78 163.86 62.39 163.14 63.01C162.42 63.61 161.66 64.17 160.86 64.69C160.06 65.19 159.27 65.6 158.49 65.92C158.27 65.58 157.97 65.19 157.59 64.75C157.21 64.31 156.87 63.95 156.57 63.67C157.31 63.45 158.06 63.16 158.82 62.8C159.6 62.44 160.33 62.04 161.01 61.6C161.69 61.16 162.24 60.71 162.66 60.25ZM165.15 60.22C165.41 60.34 165.78 60.53 166.26 60.79C166.74 61.05 167.25 61.34 167.79 61.66C168.33 61.96 168.83 62.24 169.29 62.5C169.75 62.76 170.09 62.95 170.31 63.07L168.75 65.5C168.45 65.24 168.07 64.94 167.61 64.6C167.15 64.26 166.67 63.91 166.17 63.55C165.67 63.19 165.19 62.86 164.73 62.56C164.27 62.24 163.87 61.98 163.53 61.78L165.15 60.22Z" fill="#B65A0F"/>
<path d="M133.89 66.37L136.8 65.41C137.18 66.35 137.57 67.37 137.97 68.47C138.37 69.57 138.72 70.63 139.02 71.65C139.34 72.67 139.57 73.58 139.71 74.38L136.56 75.55C136.44 74.77 136.24 73.86 135.96 72.82C135.68 71.76 135.36 70.67 135 69.55C134.64 68.41 134.27 67.35 133.89 66.37ZM129.06 51.34L132.27 52.03C131.97 53.57 131.59 55.1 131.13 56.62C130.69 58.12 130.18 59.52 129.6 60.82C129.02 62.12 128.39 63.27 127.71 64.27C127.55 64.05 127.31 63.79 126.99 63.49C126.69 63.19 126.37 62.89 126.03 62.59C125.71 62.27 125.43 62.02 125.19 61.84C125.81 61 126.36 60.02 126.84 58.9C127.34 57.78 127.77 56.57 128.13 55.27C128.51 53.97 128.82 52.66 129.06 51.34ZM127.5 76.39C127.44 76.15 127.34 75.83 127.2 75.43C127.08 75.03 126.95 74.61 126.81 74.17C126.67 73.73 126.53 73.36 126.39 73.06C126.71 72.96 126.99 72.72 127.23 72.34C127.47 71.96 127.73 71.43 128.01 70.75C128.15 70.43 128.34 69.92 128.58 69.22C128.84 68.5 129.12 67.65 129.42 66.67C129.72 65.69 130 64.64 130.26 63.52C130.54 62.4 130.78 61.28 130.98 60.16L134.46 61.03C134.1 62.61 133.67 64.21 133.17 65.83C132.67 67.43 132.14 68.96 131.58 70.42C131.04 71.88 130.49 73.2 129.93 74.38V74.44C129.93 74.44 129.81 74.51 129.57 74.65C129.33 74.77 129.04 74.94 128.7 75.16C128.38 75.36 128.1 75.57 127.86 75.79C127.62 76.01 127.5 76.21 127.5 76.39ZM127.47 76.39L127.26 73.63L128.7 72.58L137.91 70.9C137.95 71.34 138.03 71.84 138.15 72.4C138.27 72.94 138.38 73.38 138.48 73.72C136.28 74.16 134.5 74.53 133.14 74.83C131.78 75.11 130.73 75.35 129.99 75.55C129.25 75.73 128.7 75.88 128.34 76C127.98 76.14 127.69 76.27 127.47 76.39ZM133.29 52.33L136.2 51.19C136.74 52.29 137.28 53.47 137.82 54.73C138.36 55.97 138.83 57.19 139.23 58.39C139.65 59.57 139.95 60.63 140.13 61.57L136.92 62.95C136.76 62.03 136.48 60.96 136.08 59.74C135.7 58.52 135.27 57.27 134.79 55.99C134.31 54.69 133.81 53.47 133.29 52.33ZM138.84 51.94H153.54V55.15H138.84V51.94ZM143.31 63.91V65.53H149.1V63.91H143.31ZM143.31 68.08V69.7H149.1V68.08H143.31ZM143.31 59.8V61.39H149.1V59.8H143.31ZM140.1 57.1H152.43V72.4H140.1V57.1ZM144.81 54.07L148.53 54.58C148.07 55.44 147.58 56.29 147.06 57.13C146.54 57.95 146.07 58.66 145.65 59.26L142.83 58.69C143.09 58.25 143.34 57.76 143.58 57.22C143.82 56.66 144.05 56.11 144.27 55.57C144.49 55.03 144.67 54.53 144.81 54.07ZM143.04 72.34L145.86 74.32C145.1 75.14 144.15 75.93 143.01 76.69C141.87 77.47 140.73 78.09 139.59 78.55C139.39 78.19 139.12 77.76 138.78 77.26C138.46 76.76 138.14 76.33 137.82 75.97C138.46 75.69 139.11 75.35 139.77 74.95C140.43 74.55 141.05 74.12 141.63 73.66C142.21 73.18 142.68 72.74 143.04 72.34ZM146.88 74.47L148.65 72.13C149.25 72.47 149.89 72.87 150.57 73.33C151.25 73.77 151.91 74.22 152.55 74.68C153.19 75.12 153.71 75.52 154.11 75.88L152.25 78.52C151.87 78.14 151.37 77.7 150.75 77.2C150.15 76.72 149.51 76.24 148.83 75.76C148.15 75.28 147.5 74.85 146.88 74.47Z" fill="#B65A0F"/>
<path d="M114.96 53.53H118.74V74.14C118.74 75.22 118.6 76.05 118.32 76.63C118.04 77.23 117.53 77.68 116.79 77.98C116.07 78.28 115.15 78.46 114.03 78.52C112.91 78.6 111.58 78.64 110.04 78.64C109.96 78.28 109.84 77.86 109.68 77.38C109.52 76.92 109.33 76.46 109.11 76C108.91 75.54 108.71 75.15 108.51 74.83C109.25 74.85 109.99 74.87 110.73 74.89C111.49 74.91 112.17 74.92 112.77 74.92C113.37 74.92 113.79 74.92 114.03 74.92C114.37 74.92 114.61 74.86 114.75 74.74C114.89 74.62 114.96 74.4 114.96 74.08V53.53ZM97.83 59.53H101.31V73.51H97.83V59.53ZM99.3 59.53H110.61V71.2H99.3V67.75H107.07V62.95H99.3V59.53ZM95.04 52.51H122.22V56.17H95.04V52.51Z" fill="#B65A0F"/>
<path d="M66.69 55.39H75.9V75.58H66.69V72.43H72.66V58.51H66.69V55.39ZM64.59 55.39H67.86V77.8H64.59V55.39ZM66.57 63.4H74.22V66.52H66.57V63.4ZM68.88 50.5L72.78 51.07C72.46 52.09 72.11 53.1 71.73 54.1C71.37 55.1 71.04 55.95 70.74 56.65L67.86 55.99C68 55.47 68.13 54.89 68.25 54.25C68.39 53.61 68.52 52.96 68.64 52.3C68.76 51.64 68.84 51.04 68.88 50.5ZM79.86 55.15H88.65V58.45H79.86V55.15ZM87.39 55.15H90.72C90.72 55.15 90.72 55.26 90.72 55.48C90.72 55.68 90.72 55.91 90.72 56.17C90.72 56.43 90.71 56.63 90.69 56.77C90.61 60.15 90.51 63.02 90.39 65.38C90.29 67.72 90.16 69.66 90 71.2C89.86 72.72 89.69 73.91 89.49 74.77C89.29 75.63 89.03 76.26 88.71 76.66C88.31 77.24 87.88 77.64 87.42 77.86C86.96 78.08 86.43 78.24 85.83 78.34C85.25 78.42 84.53 78.45 83.67 78.43C82.83 78.43 81.97 78.42 81.09 78.4C81.07 77.9 80.95 77.31 80.73 76.63C80.51 75.97 80.24 75.39 79.92 74.89C80.88 74.97 81.77 75.02 82.59 75.04C83.43 75.06 84.04 75.07 84.42 75.07C84.72 75.07 84.96 75.04 85.14 74.98C85.34 74.9 85.53 74.76 85.71 74.56C85.97 74.3 86.18 73.77 86.34 72.97C86.52 72.15 86.67 71 86.79 69.52C86.91 68.04 87.02 66.17 87.12 63.91C87.22 61.65 87.31 58.96 87.39 55.84V55.15ZM79.95 50.53L83.43 51.34C83.05 52.8 82.58 54.26 82.02 55.72C81.48 57.18 80.88 58.56 80.22 59.86C79.58 61.14 78.92 62.26 78.24 63.22C78.04 63.02 77.75 62.79 77.37 62.53C77.01 62.25 76.64 61.98 76.26 61.72C75.9 61.46 75.58 61.26 75.3 61.12C75.96 60.26 76.58 59.27 77.16 58.15C77.76 57.01 78.29 55.79 78.75 54.49C79.23 53.17 79.63 51.85 79.95 50.53ZM78.48 63.82L81.3 62.23C81.8 62.91 82.33 63.66 82.89 64.48C83.45 65.3 83.98 66.1 84.48 66.88C84.98 67.66 85.39 68.35 85.71 68.95L82.65 70.81C82.37 70.19 81.99 69.48 81.51 68.68C81.05 67.88 80.55 67.06 80.01 66.22C79.49 65.36 78.98 64.56 78.48 63.82Z" fill="#B65A0F"/>
<path d="M42.87 66.58H58.71V69.82H42.87V66.58ZM41.13 74.59H60.24V77.86H41.13V74.59ZM41.58 53.77H60.03V59.41H56.76V56.74H44.7V59.5H41.58V53.77ZM48.87 68.14H52.41V76.15H48.87V68.14ZM31.92 66.73C33.12 66.43 34.56 66.04 36.24 65.56C37.94 65.06 39.65 64.55 41.37 64.03L41.91 67.21C40.33 67.75 38.72 68.28 37.08 68.8C35.46 69.32 33.97 69.8 32.61 70.24L31.92 66.73ZM32.34 56.23H41.22V59.56H32.34V56.23ZM35.46 50.53H38.76V74.89C38.76 75.71 38.67 76.36 38.49 76.84C38.33 77.34 38.02 77.73 37.56 78.01C37.12 78.29 36.56 78.48 35.88 78.58C35.22 78.68 34.39 78.72 33.39 78.7C33.35 78.26 33.24 77.71 33.06 77.05C32.88 76.41 32.68 75.85 32.46 75.37C33.02 75.39 33.53 75.41 33.99 75.43C34.47 75.43 34.8 75.42 34.98 75.4C35.16 75.4 35.28 75.37 35.34 75.31C35.42 75.23 35.46 75.09 35.46 74.89V50.53ZM47.79 51.22L51.15 50.23C51.51 50.91 51.87 51.65 52.23 52.45C52.59 53.25 52.87 53.94 53.07 54.52L49.62 55.69C49.44 55.09 49.17 54.37 48.81 53.53C48.47 52.69 48.13 51.92 47.79 51.22ZM46.86 56.26H50.13C50.07 57.52 49.95 58.64 49.77 59.62C49.59 60.58 49.26 61.44 48.78 62.2C48.32 62.94 47.65 63.58 46.77 64.12C45.91 64.66 44.78 65.1 43.38 65.44C43.26 65.06 43.03 64.61 42.69 64.09C42.35 63.57 42.02 63.17 41.7 62.89C42.84 62.63 43.74 62.32 44.4 61.96C45.08 61.6 45.59 61.16 45.93 60.64C46.29 60.1 46.53 59.47 46.65 58.75C46.77 58.03 46.84 57.2 46.86 56.26ZM51.6 55.96H54.81V60.85C54.81 61.23 54.85 61.5 54.93 61.66C55.01 61.82 55.18 61.9 55.44 61.9C55.54 61.9 55.7 61.9 55.92 61.9C56.14 61.9 56.38 61.9 56.64 61.9C56.9 61.9 57.14 61.9 57.36 61.9C57.58 61.9 57.75 61.9 57.87 61.9C58.15 61.9 58.48 61.89 58.86 61.87C59.24 61.83 59.54 61.78 59.76 61.72C59.8 62.14 59.84 62.62 59.88 63.16C59.92 63.7 59.98 64.16 60.06 64.54C59.82 64.64 59.5 64.71 59.1 64.75C58.72 64.77 58.33 64.78 57.93 64.78C57.81 64.78 57.63 64.78 57.39 64.78C57.15 64.78 56.89 64.78 56.61 64.78C56.33 64.78 56.07 64.78 55.83 64.78C55.59 64.78 55.41 64.78 55.29 64.78C54.29 64.78 53.52 64.65 52.98 64.39C52.46 64.11 52.1 63.68 51.9 63.1C51.7 62.52 51.6 61.76 51.6 60.82V55.96Z" fill="#B65A0F"/>
<path d="M1.44 63.67H28.56V67.33H1.44V63.67ZM6.12 50.86L9.93 51.67C9.55 53.11 9.08 54.52 8.52 55.9C7.98 57.26 7.39 58.54 6.75 59.74C6.11 60.92 5.43 61.96 4.71 62.86C4.45 62.66 4.1 62.44 3.66 62.2C3.24 61.94 2.81 61.7 2.37 61.48C1.93 61.24 1.55 61.06 1.23 60.94C1.97 60.16 2.65 59.23 3.27 58.15C3.89 57.07 4.44 55.91 4.92 54.67C5.42 53.41 5.82 52.14 6.12 50.86ZM6.99 55.27H25.98V58.93H5.19L6.99 55.27ZM16.86 64.42C17.76 67.26 19.23 69.6 21.27 71.44C23.31 73.28 26.05 74.56 29.49 75.28C29.21 75.54 28.91 75.87 28.59 76.27C28.29 76.67 28 77.08 27.72 77.5C27.46 77.94 27.24 78.34 27.06 78.7C24.58 78.06 22.47 77.13 20.73 75.91C18.99 74.69 17.53 73.19 16.35 71.41C15.19 69.63 14.22 67.56 13.44 65.2L16.86 64.42ZM12.96 50.5H16.74V60.07C16.74 61.47 16.65 62.89 16.47 64.33C16.31 65.77 15.97 67.18 15.45 68.56C14.93 69.94 14.17 71.26 13.17 72.52C12.17 73.76 10.85 74.91 9.21 75.97C7.59 77.01 5.58 77.9 3.18 78.64C3.04 78.34 2.83 77.99 2.55 77.59C2.29 77.19 2.01 76.79 1.71 76.39C1.41 76.01 1.13 75.7 0.869995 75.46C3.03 74.84 4.84 74.09 6.3 73.21C7.76 72.33 8.93 71.37 9.81 70.33C10.71 69.29 11.38 68.2 11.82 67.06C12.28 65.9 12.58 64.73 12.72 63.55C12.88 62.37 12.96 61.2 12.96 60.04V50.5Z" fill="#B65A0F"/>
<path d="M143.4 11.08H146.85V34.81H143.4V11.08ZM136.62 13.75H153.36V16.54H136.62V13.75ZM135.72 33.37H153.99V36.19H135.72V33.37ZM137.43 29.23H152.85V31.99H137.43V29.23ZM151.23 8.77002L153.3 11.41C152.22 11.63 151.04 11.82 149.76 11.98C148.48 12.12 147.16 12.24 145.8 12.34C144.44 12.44 143.07 12.52 141.69 12.58C140.31 12.62 138.99 12.65 137.73 12.67C137.69 12.29 137.59 11.84 137.43 11.32C137.27 10.8 137.11 10.36 136.95 10C138.19 9.96002 139.46 9.91002 140.76 9.85002C142.08 9.77002 143.37 9.68002 144.63 9.58002C145.89 9.48002 147.08 9.36002 148.2 9.22002C149.34 9.08002 150.35 8.93002 151.23 8.77002ZM140.73 23.89V25.39H149.61V23.89H140.73ZM140.73 20.26V21.76H149.61V20.26H140.73ZM137.61 17.77H152.88V27.88H137.61V17.77ZM130.35 11.32H133.83V36.67H130.35V11.32ZM126.03 16.96H137.04V20.29H126.03V16.96ZM130.53 18.31L132.63 19.21C132.35 20.29 132.01 21.41 131.61 22.57C131.21 23.73 130.77 24.88 130.29 26.02C129.81 27.14 129.3 28.2 128.76 29.2C128.22 30.2 127.66 31.07 127.08 31.81C126.9 31.29 126.64 30.71 126.3 30.07C125.98 29.41 125.68 28.85 125.4 28.39C125.92 27.79 126.43 27.09 126.93 26.29C127.45 25.47 127.94 24.6 128.4 23.68C128.86 22.76 129.27 21.84 129.63 20.92C129.99 20 130.29 19.13 130.53 18.31ZM135 8.83002L137.43 11.59C136.41 11.97 135.29 12.32 134.07 12.64C132.85 12.96 131.6 13.24 130.32 13.48C129.06 13.7 127.85 13.89 126.69 14.05C126.61 13.65 126.47 13.19 126.27 12.67C126.07 12.13 125.87 11.67 125.67 11.29C126.77 11.11 127.89 10.9 129.03 10.66C130.19 10.4 131.28 10.11 132.3 9.79002C133.34 9.47002 134.24 9.15002 135 8.83002ZM133.77 21.13C133.95 21.27 134.22 21.53 134.58 21.91C134.96 22.27 135.36 22.67 135.78 23.11C136.22 23.55 136.61 23.96 136.95 24.34C137.29 24.7 137.54 24.96 137.7 25.12L135.63 27.97C135.45 27.59 135.21 27.16 134.91 26.68C134.63 26.2 134.32 25.7 133.98 25.18C133.66 24.66 133.34 24.17 133.02 23.71C132.7 23.23 132.42 22.84 132.18 22.54L133.77 21.13Z" fill="#B65A0F"/>
<path d="M94.74 20.35H122.52V24.28H94.74V20.35Z" fill="#B65A0F"/>
<path d="M72.15 9.84998H79.89V12.88H72.15V9.84998ZM72.18 16.84H80.01V19.84H72.18V16.84ZM72.15 23.95H80.28V26.98H72.15V23.95ZM78.6 9.84998H81.48C81.48 9.84998 81.48 9.95998 81.48 10.18C81.48 10.38 81.48 10.6 81.48 10.84C81.48 11.08 81.47 11.27 81.45 11.41C81.45 14.73 81.44 17.63 81.42 20.11C81.4 22.57 81.37 24.68 81.33 26.44C81.31 28.2 81.27 29.66 81.21 30.82C81.15 31.98 81.07 32.89 80.97 33.55C80.87 34.21 80.74 34.68 80.58 34.96C80.32 35.46 80.04 35.81 79.74 36.01C79.46 36.21 79.12 36.35 78.72 36.43C78.34 36.53 77.92 36.59 77.46 36.61C77 36.63 76.51 36.63 75.99 36.61C75.97 36.15 75.89 35.62 75.75 35.02C75.61 34.42 75.42 33.9 75.18 33.46C75.58 33.48 75.94 33.5 76.26 33.52C76.6 33.52 76.88 33.52 77.1 33.52C77.3 33.54 77.46 33.5 77.58 33.4C77.7 33.3 77.82 33.13 77.94 32.89C78.06 32.63 78.16 32.08 78.24 31.24C78.32 30.38 78.38 29.11 78.42 27.43C78.46 25.75 78.49 23.54 78.51 20.8C78.55 18.06 78.58 14.69 78.6 10.69V9.84998ZM74.07 11.44H76.95V19.63C76.95 20.87 76.89 22.24 76.77 23.74C76.67 25.24 76.45 26.77 76.11 28.33C75.77 29.89 75.28 31.4 74.64 32.86C74 34.3 73.16 35.6 72.12 36.76C72 36.56 71.81 36.31 71.55 36.01C71.29 35.73 71.02 35.45 70.74 35.17C70.46 34.91 70.23 34.72 70.05 34.6C70.97 33.52 71.7 32.36 72.24 31.12C72.78 29.86 73.18 28.56 73.44 27.22C73.7 25.88 73.87 24.56 73.95 23.26C74.03 21.96 74.07 20.74 74.07 19.6V11.44ZM82.71 9.84998H88.68V12.76H85.65V36.7H82.71V9.84998ZM88.14 9.84998H88.68L89.1 9.72998L91.32 10.99C91.1 11.99 90.85 13.07 90.57 14.23C90.31 15.39 90.04 16.53 89.76 17.65C89.5 18.75 89.25 19.73 89.01 20.59C89.77 21.91 90.26 23.16 90.48 24.34C90.7 25.5 90.82 26.59 90.84 27.61C90.84 28.65 90.74 29.52 90.54 30.22C90.36 30.9 90.05 31.41 89.61 31.75C89.43 31.93 89.2 32.07 88.92 32.17C88.66 32.27 88.38 32.35 88.08 32.41C87.64 32.47 87.12 32.49 86.52 32.47C86.52 32.05 86.47 31.56 86.37 31C86.27 30.42 86.11 29.91 85.89 29.47C86.07 29.49 86.24 29.5 86.4 29.5C86.56 29.5 86.71 29.5 86.85 29.5C87.11 29.48 87.33 29.38 87.51 29.2C87.65 29.04 87.75 28.78 87.81 28.42C87.87 28.04 87.9 27.6 87.9 27.1C87.9 26.28 87.8 25.34 87.6 24.28C87.42 23.2 86.98 22.07 86.28 20.89C86.46 20.15 86.64 19.32 86.82 18.4C87 17.46 87.17 16.52 87.33 15.58C87.51 14.62 87.67 13.74 87.81 12.94C87.95 12.12 88.06 11.46 88.14 10.96V9.84998ZM65.82 11.17H71.37V28.84H65.82V25.54H68.64V14.44H65.82V11.17ZM64.32 11.17H66.99V31.66H64.32V11.17Z" fill="#B65A0F"/>
<path d="M32.94 21.34H59.52V24.49H32.94V21.34ZM46.38 26.74H57.6V29.86H46.38V26.74ZM44.7 22.96H48.36V34.06H44.7V22.96ZM40.08 27.73C40.64 29.19 41.42 30.29 42.42 31.03C43.42 31.75 44.62 32.23 46.02 32.47C47.44 32.71 49.02 32.84 50.76 32.86C51.1 32.86 51.57 32.86 52.17 32.86C52.79 32.86 53.48 32.86 54.24 32.86C55 32.86 55.76 32.86 56.52 32.86C57.3 32.84 58.03 32.83 58.71 32.83C59.39 32.81 59.95 32.79 60.39 32.77C60.21 33.05 60.04 33.39 59.88 33.79C59.72 34.19 59.57 34.6 59.43 35.02C59.31 35.46 59.22 35.86 59.16 36.22H57.36H50.58C48.84 36.22 47.27 36.12 45.87 35.92C44.49 35.72 43.25 35.35 42.15 34.81C41.05 34.29 40.08 33.54 39.24 32.56C38.42 31.56 37.7 30.28 37.08 28.72L40.08 27.73ZM37.47 25.12L41.04 25.63C40.56 28.11 39.77 30.29 38.67 32.17C37.59 34.03 36.23 35.55 34.59 36.73C34.41 36.51 34.15 36.24 33.81 35.92C33.49 35.6 33.15 35.28 32.79 34.96C32.45 34.64 32.14 34.39 31.86 34.21C33.4 33.27 34.63 32.02 35.55 30.46C36.47 28.9 37.11 27.12 37.47 25.12ZM39.21 15.94V17.44H52.98V15.94H39.21ZM39.21 12.1V13.57H52.98V12.1H39.21ZM35.73 9.52002H56.64V19.99H35.73V9.52002Z" fill="#B65A0F"/>
<path d="M13.53 8.62L17.07 9.42999C16.65 10.99 16.14 12.54 15.54 14.08C14.94 15.6 14.28 17.03 13.56 18.37C12.86 19.69 12.11 20.85 11.31 21.85C11.09 21.63 10.8 21.37 10.44 21.07C10.1 20.77 9.74002 20.48 9.36002 20.2C9.00002 19.9 8.68002 19.66 8.40002 19.48C9.18002 18.62 9.89002 17.61 10.53 16.45C11.17 15.29 11.74 14.04 12.24 12.7C12.76 11.36 13.19 10 13.53 8.62ZM12.69 21.94L16.2 22.66C15.92 23.94 15.56 25.2 15.12 26.44C14.7 27.66 14.23 28.82 13.71 29.92C13.19 31 12.65 31.95 12.09 32.77C11.87 32.57 11.57 32.35 11.19 32.11C10.81 31.85 10.42 31.61 10.02 31.39C9.64002 31.15 9.31002 30.96 9.03002 30.82C9.89002 29.76 10.63 28.43 11.25 26.83C11.87 25.23 12.35 23.6 12.69 21.94ZM14.19 13.9H26.52V17.23H12.87L14.19 13.9ZM17.64 15.37H21.21V32.68C21.21 33.52 21.12 34.21 20.94 34.75C20.76 35.29 20.39 35.71 19.83 36.01C19.31 36.29 18.68 36.48 17.94 36.58C17.22 36.68 16.37 36.73 15.39 36.73C15.33 36.19 15.17 35.57 14.91 34.87C14.67 34.17 14.42 33.58 14.16 33.1C14.8 33.12 15.4 33.13 15.96 33.13C16.54 33.13 16.93 33.13 17.13 33.13C17.31 33.13 17.44 33.1 17.52 33.04C17.6 32.96 17.64 32.82 17.64 32.62V15.37ZM22.29 22.72L25.5 21.64C26.04 22.68 26.53 23.79 26.97 24.97C27.41 26.13 27.79 27.28 28.11 28.42C28.43 29.54 28.66 30.55 28.8 31.45L25.35 32.65C25.23 31.77 25.02 30.75 24.72 29.59C24.44 28.43 24.09 27.26 23.67 26.08C23.25 24.88 22.79 23.76 22.29 22.72ZM25.53 13.9H26.01L26.58 13.78L29.13 14.26C28.95 15.48 28.74 16.74 28.5 18.04C28.26 19.32 28.03 20.41 27.81 21.31L24.75 20.74C24.83 20.2 24.92 19.57 25.02 18.85C25.12 18.13 25.22 17.38 25.32 16.6C25.42 15.8 25.49 15.05 25.53 14.35V13.9ZM7.11002 8.62L10.5 9.69999C9.86002 11.38 9.10002 13.08 8.22002 14.8C7.34002 16.5 6.39002 18.12 5.37002 19.66C4.35002 21.18 3.29002 22.51 2.19002 23.65C2.09002 23.35 1.92002 22.97 1.68002 22.51C1.46002 22.03 1.22002 21.55 0.96002 21.07C0.70002 20.59 0.47002 20.2 0.27002 19.9C1.17002 18.98 2.04002 17.92 2.88002 16.72C3.74002 15.52 4.53002 14.23 5.25002 12.85C5.99002 11.47 6.61002 10.06 7.11002 8.62ZM4.23002 16.93L7.65002 13.51V13.54V36.64H4.23002V16.93Z" fill="#B65A0F"/>
<path d="M209.427 20.9772C206.466 24.5866 209.008 31.5672 215.105 36.5687C221.201 41.5702 228.544 42.6988 231.505 39.0894C234.466 35.48 231.924 28.4995 225.827 23.4979C219.731 18.4964 212.388 17.3678 209.427 20.9772Z" fill="#F3BD13"/>
<path d="M193.44 20.9772C196.401 24.5866 193.859 31.5672 187.762 36.5687C181.665 41.5702 174.322 42.6988 171.361 39.0894C168.4 35.48 170.942 28.4995 177.039 23.4979C183.136 18.4964 190.479 17.3678 193.44 20.9772Z" fill="#F3BD13"/>
<g filter="url(#filter0_d_7_81)">
<path d="M208.944 15.1608C210.656 12.0064 214.477 10.6586 217.789 12.0412L222.364 13.9511C225.676 15.3337 227.405 18.9981 226.366 22.4333L222.501 35.2096C221.301 39.177 216.934 41.2372 213.109 39.6404L206.032 36.6862C202.207 35.0895 200.601 30.536 202.578 26.8929L208.944 15.1608Z" fill="#F3BD13"/>
</g>
<g filter="url(#filter1_d_7_81)">
<path d="M193.922 15.1608C192.21 12.0064 188.389 10.6586 185.077 12.0412L180.502 13.9511C177.19 15.3337 175.461 18.9981 176.501 22.4333L180.365 35.2096C181.565 39.177 185.932 41.2372 189.757 39.6404L196.834 36.6862C200.659 35.0895 202.265 30.536 200.288 26.8929L193.922 15.1608Z" fill="#F3BD13"/>
</g>
<g filter="url(#filter2_d_7_81)">
<path d="M190.069 12.6747C189.669 8.56211 192.901 5 197.033 5H205.865C209.997 5 213.229 8.56211 212.828 12.6747L210.693 34.597C210.344 38.1814 207.331 40.9152 203.73 40.9152H199.168C195.567 40.9152 192.554 38.1814 192.204 34.597L190.069 12.6747Z" fill="#F3BD13"/>
</g>
<path d="M188.376 20.7222C188.376 19.6974 189.206 18.8666 190.231 18.8666H194.399C195.424 18.8666 196.254 19.6974 196.254 20.7222V22.9681C196.254 25.1438 194.491 26.9075 192.315 26.9075V26.9075C190.139 26.9075 188.376 25.1438 188.376 22.9681V20.7222Z" fill="#FFEDB2"/>
<path d="M206.654 20.7222C206.654 19.6974 207.485 18.8666 208.51 18.8666H212.677C213.702 18.8666 214.533 19.6974 214.533 20.7222V22.9681C214.533 25.1438 212.769 26.9075 210.594 26.9075V26.9075C208.418 26.9075 206.654 25.1438 206.654 22.9681V20.7222Z" fill="#FFEDB2"/>
<defs>
<filter id="filter0_d_7_81" x="197.065" y="6.83575" width="34.2664" height="38.0117" filterUnits="userSpaceOnUse" color-interpolation-filters="sRGB">
<feFlood flood-opacity="0" result="BackgroundImageFix"/>
<feColorMatrix in="SourceAlpha" type="matrix" values="0 0 0 0 0 0 0 0 0 0 0 0 0 0 0 0 0 0 127 0" result="hardAlpha"/>
<feOffset/>
<feGaussianBlur stdDeviation="2.33216"/>
<feComposite in2="hardAlpha" operator="out"/>
<feColorMatrix type="matrix" values="0 0 0 0 1 0 0 0 0 1 0 0 0 0 1 0 0 0 0.1 0"/>
<feBlend mode="normal" in2="BackgroundImageFix" result="effect1_dropShadow_7_81"/>
<feBlend mode="normal" in="SourceGraphic" in2="effect1_dropShadow_7_81" result="shape"/>
</filter>
<filter id="filter1_d_7_81" x="171.535" y="6.83575" width="34.2664" height="38.0117" filterUnits="userSpaceOnUse" color-interpolation-filters="sRGB">
<feFlood flood-opacity="0" result="BackgroundImageFix"/>
<feColorMatrix in="SourceAlpha" type="matrix" values="0 0 0 0 0 0 0 0 0 0 0 0 0 0 0 0 0 0 127 0" result="hardAlpha"/>
<feOffset/>
<feGaussianBlur stdDeviation="2.33216"/>
<feComposite in2="hardAlpha" operator="out"/>
<feColorMatrix type="matrix" values="0 0 0 0 1 0 0 0 0 1 0 0 0 0 1 0 0 0 0.1 0"/>
<feBlend mode="normal" in2="BackgroundImageFix" result="effect1_dropShadow_7_81"/>
<feBlend mode="normal" in="SourceGraphic" in2="effect1_dropShadow_7_81" result="shape"/>
</filter>
<filter id="filter2_d_7_81" x="185.371" y="0.335684" width="32.1552" height="45.2439" filterUnits="userSpaceOnUse" color-interpolation-filters="sRGB">
<feFlood flood-opacity="0" result="BackgroundImageFix"/>
<feColorMatrix in="SourceAlpha" type="matrix" values="0 0 0 0 0 0 0 0 0 0 0 0 0 0 0 0 0 0 127 0" result="hardAlpha"/>
<feOffset/>
<feGaussianBlur stdDeviation="2.33216"/>
<feComposite in2="hardAlpha" operator="out"/>
<feColorMatrix type="matrix" values="0 0 0 0 1 0 0 0 0 1 0 0 0 0 1 0 0 0 0.1 0"/>
<feBlend mode="normal" in2="BackgroundImageFix" result="effect1_dropShadow_7_81"/>
<feBlend mode="normal" in="SourceGraphic" in2="effect1_dropShadow_7_81" result="shape"/>
</filter>
</defs>
</svg>
